<svg width="949" height="600" viewBox="0 0 949 600" fill="none" xmlns="http://www.w3.org/2000/svg">
<path d="M763.768 138.913H231.531C216.067 138.913 203.531 151.449 203.531 166.913V480.6C203.531 496.064 216.067 508.6 231.531 508.6H763.768C779.232 508.6 791.768 496.064 791.768 480.6V166.913C791.768 151.449 779.232 138.913 763.768 138.913Z" fill="white"/>
<path d="M707.705 166.091H666.94C660.539 166.091 655.351 171.279 655.351 177.68C655.351 184.08 660.539 189.268 666.94 189.268H707.705C714.105 189.268 719.294 184.08 719.294 177.68C719.294 171.279 714.105 166.091 707.705 166.091Z" fill="white" stroke="#1E3A8A" stroke-width="4"/>
<path d="M621.644 166.091H580.879C574.479 166.091 569.29 171.279 569.29 177.68C569.29 184.08 574.479 189.268 580.879 189.268H621.644C628.044 189.268 633.233 184.08 633.233 177.68C633.233 171.279 628.044 166.091 621.644 166.091Z" fill="white" stroke="#1E3A8A" stroke-width="4"/>
<path d="M547.172 177.68C547.172 171.279 541.984 166.091 535.584 166.091C529.183 166.091 523.995 171.279 523.995 177.68C523.995 184.08 529.183 189.268 535.584 189.268C541.984 189.268 547.172 184.08 547.172 177.68Z" fill="white" stroke="#1E3A8A" stroke-width="4"/>
<path d="M277.053 381.315H356.111V410.268H389.407V381.315H409.835V353.407H389.407V245.557H345.816L277.053 353.89V381.315ZM356.754 353.407H312.118V352.12L355.467 283.518H356.754V353.407ZM497.618 413.887C539.037 413.887 564.049 382.36 564.13 328.073C564.21 274.189 538.876 243.305 497.618 243.305C456.28 243.305 431.187 274.108 431.107 328.073C430.946 382.199 456.119 413.806 497.618 413.887ZM497.618 385.014C478.719 385.014 466.494 366.034 466.574 328.073C466.655 290.676 478.799 271.856 497.618 271.856C516.357 271.856 528.582 290.676 528.582 328.073C528.662 366.034 516.438 385.014 497.618 385.014ZM586.468 381.315H665.526V410.268H698.822V381.315H719.25V353.407H698.822V245.557H655.231L586.468 353.89V381.315ZM666.169 353.407H621.533V352.12L664.882 283.518H666.169V353.407Z" fill="#F97316"/>
<path d="M259.547 175.415C259.547 170.265 255.373 166.091 250.223 166.091C245.074 166.091 240.899 170.265 240.899 175.415C240.899 180.564 245.074 184.739 250.223 184.739C255.373 184.739 259.547 180.564 259.547 175.415Z" fill="white" stroke="#1E3A8A" stroke-width="4"/>
<path d="M211.198 387.712C217.733 387.712 223.031 393.01 223.031 399.545C223.031 406.08 217.733 411.378 211.198 411.378C204.663 411.378 199.365 406.08 199.365 399.545C199.365 393.01 204.663 387.712 211.198 387.712Z" fill="#1E3A8A"/>
<path d="M800.904 259.957C792.98 264.532 782.846 261.817 778.271 253.892C773.695 245.967 776.411 235.834 784.335 231.258C792.26 226.683 802.394 229.398 806.969 237.323C811.544 245.248 808.829 255.381 800.904 259.957Z" fill="#1E3A8A"/>
<path d="M491.313 189.921C484.493 189.921 478.964 184.392 478.964 177.572C478.964 170.752 484.493 165.223 491.313 165.223C498.133 165.223 503.662 170.752 503.662 177.572C503.662 184.392 498.133 189.921 491.313 189.921Z" fill="#F97316"/>
<path d="M343.66 148.268C352.736 148.268 360.095 140.91 360.095 131.833C360.095 122.756 352.736 115.398 343.66 115.398C334.583 115.398 327.225 122.756 327.225 131.833C327.225 140.91 334.583 148.268 343.66 148.268Z" fill="#1E3A8A"/>
<path d="M578.614 430.2C571.109 430.2 565.025 436.284 565.025 443.789C565.025 451.294 571.109 457.378 578.614 457.378C586.119 457.378 592.203 451.294 592.203 443.789C592.203 436.284 586.119 430.2 578.614 430.2Z" fill="#1E3A8A"/>
<path d="M327.26 482.358C320.362 482.358 314.77 476.766 314.77 469.868C314.77 462.97 320.362 457.378 327.26 457.378C334.158 457.378 339.75 462.97 339.75 469.868C339.75 476.766 334.158 482.358 327.26 482.358Z" fill="#F97316"/>
<path d="M452.268 423.557C456.745 426.141 458.278 431.866 455.694 436.343C453.109 440.82 447.385 442.353 442.908 439.769C438.431 437.184 436.897 431.46 439.482 426.983C442.066 422.506 447.791 420.972 452.268 423.557Z" fill="#F97316"/>
<path d="M760.957 163.478L743.932 180.502C743.312 181.122 743.312 182.128 743.932 182.748C744.552 183.367 745.557 183.367 746.178 182.747L763.202 165.723C763.822 165.103 763.822 164.097 763.202 163.477C762.582 162.857 761.577 162.858 760.957 163.478Z" fill="#F97316"/>
<path d="M759.291 175.668L754.382 180.577C753.762 181.197 753.761 182.203 754.381 182.823C755.001 183.443 756.007 183.442 756.627 182.822L761.536 177.913C762.156 177.293 762.157 176.287 761.537 175.667C760.917 175.047 759.911 175.048 759.291 175.668Z" fill="#F97316"/>
<path d="M235.886 464.044L220.653 479.278C220.098 479.832 220.098 480.732 220.653 481.286L220.653 481.287C221.208 481.841 222.107 481.841 222.661 481.287L237.895 466.053C238.45 465.498 238.45 464.599 237.895 464.045L237.895 464.044C237.34 463.489 236.441 463.489 235.886 464.044Z" fill="#F97316"/>
<path d="M234.395 474.95L230.001 479.344C229.447 479.898 229.447 480.798 230.001 481.352L230.002 481.353C230.556 481.907 231.456 481.907 232.01 481.353L236.404 476.959C236.959 476.404 236.959 475.505 236.404 474.951L236.403 474.95C235.849 474.395 234.95 474.395 234.395 474.95Z" fill="#F97316"/>
<path d="M162.06 167.787L191.508 138.338C192.581 137.265 192.581 135.527 191.508 134.454C190.436 133.382 188.697 133.382 187.625 134.454L158.176 163.903C157.104 164.976 157.104 166.714 158.176 167.787C159.249 168.859 160.987 168.859 162.06 167.787Z" fill="#F97316"/>
<path d="M164.943 146.702L173.436 138.209C174.509 137.136 174.509 135.398 173.436 134.325C172.364 133.253 170.625 133.253 169.553 134.325L161.06 142.818C159.987 143.891 159.987 145.629 161.06 146.702C162.132 147.774 163.871 147.774 164.943 146.702Z" fill="#F97316"/>
<path d="M746.91 484.565L767.642 463.834C768.397 463.079 768.397 461.855 767.642 461.1C766.887 460.345 765.663 460.345 764.908 461.1L744.177 481.832C743.422 482.587 743.422 483.811 744.177 484.565C744.932 485.32 746.155 485.32 746.91 484.565Z" fill="#F97316"/>
<path d="M748.94 469.723L754.919 463.744C755.674 462.989 755.674 461.765 754.919 461.01C754.164 460.255 752.941 460.255 752.186 461.01L746.206 466.989C745.451 467.744 745.451 468.968 746.206 469.723C746.961 470.478 748.185 470.478 748.94 469.723Z" fill="#F97316"/>
<path fill-rule="evenodd" clip-rule="evenodd" d="M732.929 102.773H736.233C737.032 102.773 737.675 103.423 737.675 104.215V107.519C737.675 108.318 737.025 108.961 736.233 108.961H732.929C732.137 108.961 731.487 108.311 731.487 107.519V104.215C731.486 104.026 731.523 103.838 731.596 103.663C731.668 103.488 731.774 103.328 731.908 103.194C732.042 103.06 732.201 102.954 732.376 102.882C732.552 102.81 732.739 102.773 732.929 102.773ZM744.384 102.773H747.688C748.48 102.773 749.13 103.423 749.13 104.215V107.519C749.13 108.318 748.48 108.961 747.688 108.961H744.384C743.592 108.961 742.942 108.311 742.942 107.519V104.215C742.942 103.423 743.592 102.773 744.384 102.773ZM755.847 102.773H759.151C759.944 102.773 760.594 103.423 760.594 104.215V107.519C760.594 108.318 759.944 108.961 759.151 108.961H755.847C755.055 108.961 754.405 108.311 754.405 107.519V104.215C754.404 104.026 754.441 103.838 754.514 103.663C754.586 103.488 754.692 103.328 754.826 103.194C754.96 103.06 755.119 102.954 755.294 102.882C755.469 102.81 755.657 102.773 755.847 102.773ZM767.303 102.773H770.607C771.399 102.773 772.049 103.423 772.049 104.215V107.519C772.049 108.318 771.399 108.961 770.607 108.961H767.303C766.92 108.961 766.552 108.809 766.281 108.539C766.009 108.269 765.856 107.902 765.854 107.519V104.215C765.858 103.833 766.012 103.467 766.283 103.198C766.554 102.928 766.92 102.775 767.303 102.773ZM778.759 102.773H782.063C782.862 102.773 783.512 103.423 783.512 104.215V107.519C783.512 108.318 782.862 108.961 782.063 108.961H778.759C777.967 108.961 777.317 108.311 777.317 107.519V104.215C777.317 103.423 777.967 102.773 778.759 102.773ZM744.804 115.265H748.108C748.901 115.265 749.551 115.915 749.551 116.707V120.018C749.551 120.81 748.901 121.46 748.108 121.46H744.804C744.005 121.46 743.362 120.81 743.362 120.018V116.714C743.361 116.524 743.397 116.336 743.469 116.16C743.541 115.984 743.647 115.824 743.781 115.689C743.915 115.555 744.074 115.448 744.25 115.375C744.425 115.302 744.614 115.265 744.804 115.265ZM756.26 115.265H759.564C760.356 115.265 761.006 115.915 761.006 116.707V120.018C761.006 120.81 760.356 121.46 759.564 121.46H756.26C755.468 121.46 754.818 120.81 754.818 120.018V116.714C754.817 116.524 754.853 116.336 754.925 116.16C754.997 115.984 755.103 115.824 755.237 115.689C755.371 115.555 755.53 115.448 755.706 115.375C755.881 115.302 756.07 115.265 756.26 115.265ZM767.716 115.265H771.02C771.819 115.265 772.469 115.915 772.469 116.707V120.018C772.467 120.401 772.313 120.768 772.042 121.038C771.77 121.308 771.403 121.46 771.02 121.46H767.716C766.924 121.46 766.274 120.81 766.274 120.018V116.714C766.274 115.915 766.924 115.265 767.716 115.265ZM755.847 89.353H759.151C759.944 89.353 760.594 90.003 760.594 90.795V94.1C760.594 94.898 759.944 95.542 759.151 95.542H755.847C755.055 95.542 754.405 94.892 754.405 94.1V90.795C754.404 90.6055 754.441 90.4178 754.514 90.2427C754.586 90.0676 754.692 89.9085 754.826 89.7745C754.96 89.6405 755.119 89.5343 755.294 89.462C755.469 89.3896 755.657 89.3526 755.847 89.353ZM767.303 89.353H770.607C771.399 89.353 772.049 90.003 772.049 90.795V94.1C772.049 94.898 771.399 95.542 770.607 95.542H767.303C766.92 95.5417 766.552 95.39 766.281 95.1198C766.009 94.8496 765.856 94.483 765.854 94.1V90.795C765.858 90.4126 766.012 90.0472 766.283 89.7775C766.554 89.5078 766.92 89.3553 767.303 89.353ZM136.163 492.313H139.467C140.266 492.313 140.909 492.963 140.909 493.755V497.059C140.909 497.858 140.259 498.501 139.467 498.501H136.163C135.371 498.501 134.721 497.851 134.721 497.059V493.755C134.72 493.566 134.757 493.378 134.83 493.203C134.902 493.028 135.008 492.868 135.142 492.734C135.276 492.6 135.435 492.494 135.61 492.422C135.786 492.35 135.973 492.313 136.163 492.313ZM147.618 492.313H150.922C151.715 492.313 152.365 492.963 152.365 493.755V497.059C152.365 497.858 151.715 498.501 150.922 498.501H147.618C146.826 498.501 146.176 497.851 146.176 497.059V493.755C146.176 492.963 146.826 492.313 147.618 492.313ZM159.081 492.313H162.386C163.178 492.313 163.828 492.963 163.828 493.755V497.059C163.828 497.858 163.178 498.501 162.386 498.501H159.081C158.289 498.501 157.639 497.851 157.639 497.059V493.755C157.638 493.566 157.676 493.378 157.748 493.203C157.82 493.028 157.927 492.869 158.06 492.735C158.194 492.601 158.353 492.495 158.529 492.422C158.704 492.35 158.891 492.313 159.081 492.313ZM170.537 492.313H173.841C174.633 492.313 175.283 492.963 175.283 493.755V497.059C175.283 497.858 174.633 498.501 173.841 498.501H170.537C170.154 498.501 169.786 498.349 169.515 498.079C169.243 497.809 169.09 497.442 169.088 497.059V493.755C169.092 493.373 169.246 493.007 169.517 492.738C169.788 492.468 170.154 492.315 170.537 492.313ZM181.993 492.313H185.297C186.096 492.313 186.746 492.963 186.746 493.755V497.059C186.746 497.858 186.096 498.501 185.297 498.501H181.993C181.201 498.501 180.551 497.851 180.551 497.059V493.755C180.551 492.963 181.201 492.313 181.993 492.313ZM148.039 504.805H151.343C152.135 504.805 152.785 505.455 152.785 506.247V509.558C152.785 510.35 152.135 511 151.343 511H148.039C147.24 511 146.596 510.35 146.596 509.558V506.254C146.595 506.064 146.631 505.876 146.704 505.7C146.776 505.524 146.882 505.364 147.016 505.229C147.15 505.095 147.309 504.988 147.485 504.915C147.66 504.842 147.849 504.805 148.039 504.805ZM159.494 504.805H162.798C163.59 504.805 164.24 505.455 164.24 506.247V509.558C164.24 510.35 163.59 511 162.798 511H159.494C158.702 511 158.052 510.35 158.052 509.558V506.254C158.051 506.064 158.087 505.876 158.159 505.7C158.231 505.524 158.337 505.364 158.471 505.229C158.605 505.095 158.764 504.988 158.94 504.915C159.115 504.842 159.304 504.805 159.494 504.805ZM170.95 504.805H174.254C175.053 504.805 175.703 505.455 175.703 506.247V509.558C175.701 509.941 175.547 510.308 175.276 510.578C175.004 510.848 174.637 511 174.254 511H170.95C170.158 511 169.508 510.35 169.508 509.558V506.254C169.508 505.455 170.158 504.805 170.95 504.805ZM159.082 478.893H162.386C163.178 478.893 163.828 479.543 163.828 480.336V483.64C163.828 484.439 163.178 485.082 162.386 485.082H159.082C158.289 485.082 157.639 484.432 157.639 483.64V480.336C157.638 480.146 157.675 479.959 157.748 479.783C157.82 479.608 157.926 479.449 158.06 479.315C158.195 479.181 158.354 479.074 158.529 479.002C158.704 478.93 158.892 478.893 159.082 478.893ZM170.537 478.893H173.841C174.633 478.893 175.283 479.543 175.283 480.336V483.64C175.283 484.439 174.633 485.082 173.841 485.082H170.537C170.154 485.082 169.786 484.93 169.515 484.66C169.243 484.39 169.09 484.023 169.088 483.64V480.336C169.092 479.953 169.246 479.588 169.517 479.318C169.788 479.048 170.154 478.895 170.537 478.893Z" fill="#F97316"/>
<path fill-rule="evenodd" clip-rule="evenodd" d="M205.382 325.922C180.742 325.922 160.765 305.663 160.765 280.676C160.765 255.689 180.742 235.431 205.382 235.431C230.022 235.431 249.999 255.689 249.999 280.676C249.999 305.663 230.022 325.922 205.382 325.922Z" fill="#1E3A8A"/>
<path d="M223.357 261.476L204.509 281.585L193.193 269.521" stroke="white" stroke-width="7.405" stroke-linecap="round" stroke-linejoin="round"/>
<path d="M185.678 300.835L204.526 280.726L215.842 292.79" stroke="white" stroke-width="7.405" stroke-linecap="round" stroke-linejoin="round"/>
</svg>
