<svg width="1440" height="683" viewBox="0 0 1440 683" fill="none" xmlns="http://www.w3.org/2000/svg">
<path d="M1684.14 172.452C1684.69 174.742 1685.2 177.044 1685.68 179.36L1685.19 179.461C1685.66 181.755 1686.1 184.063 1686.5 186.382L1686.99 186.296C1687.39 188.612 1687.76 190.941 1688.09 193.281L1687.59 193.352C1687.92 195.674 1688.21 198.008 1688.47 200.353L1688.97 200.299C1689.22 202.632 1689.44 204.975 1689.62 207.329H1689.62L1689.13 207.368C1689.31 209.708 1689.45 212.058 1689.56 214.418L1690.06 214.395C1690.17 216.738 1690.24 219.09 1690.28 221.451L1689.78 221.459C1689.8 222.637 1689.81 223.818 1689.81 225C1689.81 226.182 1689.8 227.363 1689.78 228.541L1690.28 228.548C1690.24 230.909 1690.17 233.261 1690.06 235.604L1689.56 235.582C1689.45 237.942 1689.31 240.292 1689.13 242.632L1689.62 242.67C1689.44 245.024 1689.22 247.367 1688.97 249.7L1688.47 249.647C1688.21 251.992 1687.92 254.326 1687.59 256.648L1688.09 256.718C1687.76 259.058 1687.39 261.387 1686.99 263.703L1686.5 263.618C1686.1 265.937 1685.66 268.245 1685.19 270.539L1685.68 270.639C1685.2 272.955 1684.69 275.257 1684.14 277.547L1683.65 277.432C1683.1 279.723 1682.52 282 1681.9 284.263L1682.38 284.394C1681.76 286.67 1681.11 288.932 1680.42 291.179L1679.94 291.032C1679.25 293.285 1678.52 295.524 1677.76 297.746L1678.23 297.906C1677.47 300.138 1676.67 302.355 1675.84 304.555L1675.37 304.379C1674.54 306.581 1673.67 308.767 1672.77 310.936L1673.23 311.126C1672.33 313.306 1671.39 315.469 1670.42 317.614L1669.97 317.409C1669 319.553 1668 321.68 1666.96 323.787L1667.41 324.006C1666.37 326.124 1665.3 328.223 1664.19 330.303L1663.75 330.069C1662.65 332.148 1661.52 334.208 1660.35 336.248L1660.78 336.495C1659.61 338.542 1658.41 340.568 1657.18 342.574L1656.76 342.314C1655.52 344.32 1654.26 346.304 1652.97 348.267L1653.39 348.541C1652.09 350.51 1650.76 352.458 1649.41 354.384L1649 354.098C1647.65 356.021 1646.26 357.921 1644.85 359.799L1645.25 360.099C1643.83 361.983 1642.39 363.844 1640.91 365.682L1640.52 365.37C1639.05 367.205 1637.55 369.016 1636.02 370.803L1636.4 371.126C1634.87 372.917 1633.31 374.685 1631.73 376.427L1631.36 376.091C1629.78 377.83 1628.16 379.544 1626.53 381.232L1626.89 381.579C1625.25 383.271 1623.58 384.937 1621.89 386.577L1621.54 386.22C1619.85 387.856 1618.14 389.466 1616.4 391.049L1616.74 391.418C1614.99 393.004 1613.23 394.563 1611.44 396.095L1611.11 395.715C1609.32 397.242 1607.51 398.742 1605.68 400.214L1605.99 400.603C1604.15 402.077 1602.29 403.523 1600.41 404.94L1600.11 404.542C1598.23 405.954 1596.33 407.337 1594.41 408.691L1594.69 409.099C1592.77 410.455 1590.82 411.782 1588.85 413.078L1588.58 412.661C1586.61 413.953 1584.63 415.216 1582.62 416.447L1582.88 416.872C1580.88 418.104 1578.85 419.305 1576.8 420.475L1576.56 420.042C1574.52 421.208 1572.46 422.342 1570.38 423.445L1570.61 423.886C1568.53 424.989 1566.43 426.062 1564.32 427.102L1564.1 426.653C1561.99 427.688 1559.86 428.69 1557.72 429.659L1557.92 430.114C1555.78 431.084 1553.62 432.022 1551.44 432.926L1551.25 432.465C1549.08 433.364 1546.89 434.23 1544.69 435.062L1544.86 435.529C1542.66 436.361 1540.45 437.159 1538.22 437.923L1538.05 437.452C1535.83 438.213 1533.59 438.94 1531.34 439.632L1531.49 440.108C1529.24 440.799 1526.98 441.455 1524.7 442.076L1524.57 441.596C1522.31 442.213 1520.03 442.797 1517.74 443.345L1517.86 443.829C1515.57 444.377 1513.26 444.89 1510.95 445.367L1510.85 444.879C1508.55 445.352 1506.25 445.789 1503.93 446.191L1504.01 446.682C1501.7 447.083 1499.37 447.45 1497.03 447.78L1496.96 447.286C1494.64 447.614 1492.3 447.906 1489.96 448.162L1490.01 448.658C1487.68 448.913 1485.33 449.132 1482.98 449.314L1482.94 448.817C1480.6 448.999 1478.25 449.145 1475.89 449.255L1475.91 449.753C1473.57 449.862 1471.22 449.934 1468.86 449.971L1468.85 449.473C1467.67 449.491 1466.49 449.5 1465.31 449.5C1464.13 449.5 1462.95 449.491 1461.77 449.473L1461.76 449.971C1459.4 449.934 1457.05 449.862 1454.7 449.753L1454.73 449.255C1452.37 449.145 1450.02 448.999 1447.68 448.817L1447.64 449.314C1445.28 449.132 1442.94 448.913 1440.61 448.658L1440.66 448.162C1438.32 447.906 1435.98 447.614 1433.66 447.286L1433.59 447.78C1431.25 447.45 1428.92 447.084 1426.61 446.683L1426.69 446.191C1424.37 445.789 1422.06 445.352 1419.77 444.879L1419.67 445.367C1417.35 444.89 1415.05 444.377 1412.76 443.829L1412.88 443.345C1410.59 442.797 1408.31 442.213 1406.05 441.596L1405.92 442.076C1403.64 441.455 1401.38 440.799 1399.13 440.108L1399.28 439.632C1397.02 438.939 1394.79 438.213 1392.56 437.452L1392.4 437.923C1390.17 437.159 1387.95 436.361 1385.75 435.529L1385.93 435.063C1383.73 434.231 1381.54 433.364 1379.37 432.465L1379.18 432.926C1377 432.022 1374.84 431.084 1372.69 430.114L1372.9 429.659C1370.76 428.69 1368.63 427.688 1366.52 426.653L1366.3 427.102C1364.18 426.062 1362.09 424.99 1360.01 423.887L1360.24 423.445C1358.16 422.342 1356.1 421.208 1354.06 420.042L1353.81 420.475C1351.77 419.305 1349.74 418.104 1347.73 416.872L1348 416.447C1345.99 415.216 1344.01 413.953 1342.04 412.661L1341.77 413.078C1339.8 411.782 1337.85 410.455 1335.92 409.099L1336.21 408.691C1334.29 407.338 1332.39 405.954 1330.51 404.542L1330.21 404.94C1328.33 403.523 1326.46 402.078 1324.63 400.604L1324.94 400.214C1323.1 398.742 1321.29 397.242 1319.51 395.715L1319.18 396.095C1317.39 394.563 1315.62 393.004 1313.88 391.418L1314.22 391.049C1312.48 389.466 1310.77 387.856 1309.08 386.22L1308.73 386.577C1307.04 384.937 1305.37 383.271 1303.73 381.579L1304.09 381.232C1302.45 379.544 1300.84 377.83 1299.26 376.091L1298.89 376.427C1297.3 374.685 1295.75 372.918 1294.21 371.127L1294.59 370.803C1293.07 369.016 1291.57 367.205 1290.1 365.37L1289.71 365.682C1288.23 363.844 1286.79 361.983 1285.37 360.099L1285.77 359.799C1284.36 357.921 1282.97 356.021 1281.62 354.098L1281.21 354.384C1279.85 352.458 1278.53 350.511 1277.23 348.542H1277.23L1277.65 348.267C1276.36 346.304 1275.09 344.32 1273.86 342.314L1273.44 342.575C1272.21 340.569 1271 338.542 1269.83 336.495L1270.27 336.248C1269.1 334.208 1267.97 332.148 1266.86 330.069L1266.42 330.303C1265.32 328.223 1264.25 326.124 1263.21 324.006L1263.66 323.787C1262.62 321.68 1261.62 319.553 1260.65 317.409L1260.2 317.614C1259.23 315.469 1258.29 313.306 1257.38 311.126L1257.85 310.936C1256.95 308.767 1256.08 306.581 1255.25 304.379L1254.78 304.555C1253.95 302.355 1253.15 300.138 1252.39 297.906L1252.86 297.746C1252.1 295.524 1251.37 293.285 1250.68 291.032L1250.2 291.179C1249.51 288.932 1248.85 286.67 1248.23 284.394L1248.71 284.263C1248.1 282 1247.51 279.723 1246.97 277.432L1246.48 277.547C1245.93 275.257 1245.42 272.955 1244.94 270.639L1245.43 270.539C1244.96 268.245 1244.52 265.937 1244.12 263.618L1243.63 263.703C1243.23 261.387 1242.86 259.058 1242.53 256.718L1243.02 256.648C1242.7 254.326 1242.4 251.992 1242.15 249.647L1241.65 249.701C1241.4 247.368 1241.18 245.024 1241 242.67L1241.49 242.632C1241.31 240.292 1241.17 237.942 1241.06 235.582L1240.56 235.604C1240.45 233.261 1240.38 230.909 1240.34 228.548L1240.84 228.541C1240.82 227.363 1240.81 226.182 1240.81 225C1240.81 223.818 1240.82 222.637 1240.84 221.459L1240.34 221.451C1240.38 219.09 1240.45 216.738 1240.56 214.395L1241.06 214.418C1241.17 212.058 1241.31 209.708 1241.49 207.368L1241 207.329C1241.18 204.975 1241.4 202.631 1241.65 200.298L1241.65 200.299L1242.15 200.353C1242.4 198.008 1242.7 195.674 1243.02 193.352L1242.53 193.281C1242.86 190.941 1243.23 188.612 1243.63 186.296L1244.12 186.382C1244.52 184.063 1244.96 181.755 1245.43 179.461L1244.94 179.36C1245.42 177.044 1245.93 174.742 1246.48 172.452L1246.97 172.568C1247.51 170.277 1248.1 168 1248.71 165.737L1248.23 165.605C1248.85 163.329 1249.51 161.067 1250.2 158.82L1250.68 158.968C1251.37 156.715 1252.1 154.476 1252.86 152.254L1252.39 152.093C1253.15 149.861 1253.95 147.644 1254.78 145.444L1255.25 145.621C1256.08 143.419 1256.95 141.233 1257.85 139.064L1257.38 138.873C1258.29 136.699 1259.22 134.543 1260.19 132.404L1260.2 132.385L1260.65 132.591C1261.62 130.447 1262.62 128.32 1263.66 126.213L1263.21 125.993C1264.25 123.875 1265.32 121.776 1266.42 119.696L1266.86 119.931C1267.97 117.851 1269.1 115.792 1270.27 113.752L1269.83 113.504C1271 111.457 1272.21 109.431 1273.44 107.425L1273.86 107.686C1275.09 105.68 1276.36 103.696 1277.65 101.733L1277.23 101.458L1277.23 101.457C1278.53 99.4877 1279.85 97.5408 1281.21 95.6152L1281.62 95.9023C1282.97 93.9794 1284.36 92.0791 1285.77 90.2012L1285.37 89.9004C1286.79 88.0162 1288.23 86.155 1289.71 84.3174L1290.1 84.6299C1291.57 82.7953 1293.07 80.984 1294.59 79.1973L1294.21 78.873L1294.21 78.8721C1295.75 77.0808 1297.3 75.3142 1298.89 73.5723L1299.26 73.9092C1300.84 72.1703 1302.45 70.4559 1304.09 68.7676L1303.73 68.4199C1305.37 66.728 1307.04 65.0618 1308.73 63.4219L1309.08 63.7803C1310.77 62.1439 1312.48 60.5343 1314.22 58.9512L1313.88 58.5811C1315.62 56.9949 1317.39 55.4358 1319.18 53.9043L1319.51 54.2852C1321.29 52.7578 1323.1 51.2577 1324.94 49.7861L1324.63 49.3955C1326.46 47.9214 1328.33 46.4755 1330.21 45.0586L1330.51 45.458C1332.39 44.0459 1334.29 42.6625 1336.21 41.3086L1335.92 40.9004C1337.85 39.5445 1339.8 38.2173 1341.77 36.9209L1342.04 37.3389C1344.01 36.0469 1345.99 34.7841 1348 33.5527L1347.73 33.127C1349.74 31.8951 1351.77 30.6945 1353.81 29.5244L1354.06 29.958C1356.1 28.7921 1358.16 27.6578 1360.24 26.5547L1360.01 26.1123C1362.09 25.009 1364.18 23.9368 1366.3 22.8975L1366.52 23.3467C1368.63 22.3124 1370.76 21.3103 1372.9 20.3408L1372.69 19.8848C1374.78 18.9428 1376.88 18.0312 1378.99 17.1514L1379.18 17.0732L1379.37 17.5352C1381.54 16.636 1383.73 15.77 1385.93 14.9375L1385.75 14.4697C1387.95 13.638 1390.17 12.8403 1392.4 12.0762L1392.56 12.5479C1394.79 11.7871 1397.02 11.0605 1399.28 10.3682L1399.13 9.89062C1401.38 9.20017 1403.64 8.54423 1405.92 7.92285L1406.05 8.4043C1408.31 7.78657 1410.59 7.20337 1412.88 6.65527L1412.76 6.16992C1415.05 5.62225 1417.35 5.10894 1419.67 4.63184L1419.77 5.12109C1422.06 4.64845 1424.37 4.21066 1426.69 3.80859L1426.61 3.31641C1428.54 2.98054 1430.49 2.66977 1432.44 2.38379L1433.59 2.21875L1433.66 2.71387C1435.98 2.38619 1438.32 2.09393 1440.66 1.83789L1440.61 1.34082C1442.94 1.08603 1445.28 0.867456 1447.64 0.68457L1447.68 1.18262C1450.02 1.00085 1452.37 0.854599 1454.73 0.745117L1454.7 0.246094C1457.05 0.137375 1459.4 0.0648294 1461.76 0.0283203L1461.77 0.527344C1462.95 0.509129 1464.13 0.5 1465.31 0.5C1466.49 0.500001 1467.67 0.509135 1468.85 0.527344L1468.86 0.0283203C1471.22 0.0648192 1473.57 0.137365 1475.91 0.246094L1475.89 0.745117C1478.25 0.854606 1480.6 1.00083 1482.94 1.18262L1482.98 0.68457C1485.33 0.867441 1487.68 1.08605 1490.01 1.34082L1489.96 1.83789C1492.3 2.09393 1494.64 2.38619 1496.96 2.71387L1497.03 2.21875C1499.37 2.54893 1501.7 2.9148 1504.01 3.31641L1503.93 3.80859C1506.25 4.21069 1508.55 4.64841 1510.85 5.12109L1510.95 4.63184C1513.26 5.10899 1515.57 5.62218 1517.86 6.16992L1517.74 6.65527C1520.03 7.20341 1522.31 7.78652 1524.57 8.4043L1524.7 7.92285C1526.98 8.54414 1529.24 9.20027 1531.49 9.89062L1531.34 10.3682C1533.59 11.0605 1535.83 11.7872 1538.05 12.5479L1538.22 12.0762C1540.45 12.8403 1542.66 13.638 1544.86 14.4697H1544.87L1544.69 14.9365C1546.89 15.7691 1549.08 16.6359 1551.25 17.5352L1551.44 17.0732C1553.62 17.9774 1555.78 18.9147 1557.92 19.8848L1557.72 20.3408C1559.86 21.3103 1561.99 22.3124 1564.1 23.3467L1564.32 22.8975C1566.43 23.937 1568.53 25.0097 1570.61 26.1133L1570.38 26.5547C1572.46 27.6578 1574.52 28.7921 1576.56 29.958L1576.8 29.5244C1578.85 30.6943 1580.88 31.8952 1582.88 33.127L1582.62 33.5527C1584.63 34.7842 1586.61 36.0468 1588.58 37.3389L1588.85 36.9209C1590.82 38.2174 1592.77 39.5443 1594.69 40.9004L1594.41 41.3086C1596.33 42.6626 1598.23 44.0458 1600.11 45.458L1600.41 45.0586C1602.29 46.4758 1604.15 47.9221 1605.99 49.3965L1605.68 49.7861C1607.51 51.2578 1609.32 52.7577 1611.11 54.2852L1611.44 53.9043C1613.23 55.4356 1614.99 56.9951 1616.74 58.5811H1616.74L1616.4 58.9512C1618.14 60.5342 1619.85 62.144 1621.54 63.7803L1621.89 63.4219C1623.58 65.0619 1625.25 66.7278 1626.89 68.4199L1626.53 68.7676C1628.16 70.4559 1629.78 72.1703 1631.36 73.9092L1631.73 73.5723C1633.31 75.3144 1634.87 77.0816 1636.4 78.873L1636.02 79.1973C1637.55 80.9839 1639.05 82.7954 1640.52 84.6299L1640.91 84.3174C1642.39 86.1549 1643.83 88.0163 1645.25 89.9004L1644.85 90.2012C1646.26 92.079 1647.65 93.9795 1649 95.9023L1649.41 95.6152C1650.76 97.5409 1652.09 99.4886 1653.39 101.458H1653.39L1652.97 101.733C1654.26 103.696 1655.52 105.68 1656.75 107.686L1657.18 107.424C1658.41 109.43 1659.61 111.457 1660.78 113.504L1660.35 113.752C1661.52 115.792 1662.65 117.852 1663.75 119.931L1664.19 119.696C1665.3 121.776 1666.37 123.875 1667.41 125.993H1667.41L1666.96 126.213C1668 128.32 1669 130.447 1669.97 132.591L1670.42 132.385C1671.39 134.53 1672.33 136.693 1673.23 138.873L1672.77 139.064C1673.67 141.233 1674.54 143.419 1675.37 145.621L1675.84 145.444C1676.67 147.644 1677.47 149.861 1678.23 152.093L1677.76 152.254C1678.52 154.476 1679.25 156.715 1679.94 158.968L1680.42 158.82C1681.11 161.067 1681.76 163.329 1682.38 165.605L1681.9 165.737C1682.52 168 1683.1 170.277 1683.65 172.568L1684.14 172.452Z" stroke="#1E3A8A" stroke-dasharray="7 7"/>
<rect width="28.5364" height="39.9458" transform="matrix(0.499978 -0.866038 0.866013 0.500022 1215.27 214.602)" fill="#EEDDD3"/>
<ellipse cx="14.2682" cy="3.45988" rx="14.2682" ry="3.45988" transform="matrix(0.499978 -0.866038 0.866013 0.500022 1246.87 232.845)" fill="#C1E0FE"/>
<rect width="28.5364" height="39.9458" transform="matrix(-0.49997 0.866043 0.866008 0.500031 1229.53 189.888)" fill="url(#paint0_radial_2001_3838)"/>
<ellipse cx="14.2682" cy="3.45988" rx="14.2682" ry="3.45988" transform="matrix(0.499978 -0.866038 0.866013 0.500022 1212 212.714)" fill="#C0DFFD"/>
<ellipse cx="11.4145" cy="2.67354" rx="11.4145" ry="2.67354" transform="matrix(0.499979 -0.866038 0.866013 0.500022 1214.25 210.715)" fill="#B1D9FF"/>
<ellipse cx="11.4145" cy="2.67354" rx="11.4145" ry="2.67354" transform="matrix(0.499979 -0.866038 0.866013 0.500022 1214.25 210.715)" fill="url(#paint1_linear_2001_3838)" fill-opacity="0.25"/>
<circle cx="1318.83" cy="395.638" r="7.85235" fill="url(#paint2_radial_2001_3838)"/>
<rect width="26.9804" height="18.9947" transform="matrix(0.707107 -0.707107 -0.707107 -0.707107 234.346 138.509)" fill="url(#paint3_radial_2001_3838)"/>
<circle cx="161.5" cy="335.133" r="161" stroke="url(#paint4_linear_2001_3838)" stroke-dasharray="7 7"/>
<rect x="191.02" y="303.523" width="26.9804" height="37.7677" transform="rotate(45 191.02 303.523)" fill="#EEDDD3"/>
<ellipse cx="173.853" cy="339.768" rx="13.4902" ry="3.27122" transform="rotate(45 173.853 339.768)" fill="#C1E0FE"/>
<rect width="26.9804" height="37.7677" transform="matrix(-0.707107 -0.707107 -0.707107 0.707107 210.098 322.601)" fill="url(#paint5_radial_2001_3838)"/>
<ellipse cx="200.769" cy="312.852" rx="13.4902" ry="3.27122" transform="rotate(45 200.769 312.852)" fill="#C0DFFD"/>
<ellipse cx="200.664" cy="312.957" rx="10.7921" ry="2.52776" transform="rotate(45 200.664 312.957)" fill="#B1D9FF"/>
<ellipse cx="200.664" cy="312.957" rx="10.7921" ry="2.52776" transform="rotate(45 200.664 312.957)" fill="url(#paint6_linear_2001_3838)" fill-opacity="0.25"/>
<g filter="url(#filter0_d_2001_3838)">
<circle cx="245" cy="197.633" r="13" fill="url(#paint7_radial_2001_3838)"/>
</g>
<circle cx="115" cy="257.633" r="13" fill="url(#paint8_radial_2001_3838)"/>
<path d="M349.412 132H300V177.833M349.412 132V177.833M349.412 132H398.824M349.412 177.833H300M349.412 177.833H398.824M349.412 177.833V223.667M300 177.833V223.667M398.824 132V177.833M398.824 132H448.235M398.824 177.833H448.235M398.824 177.833V223.667M448.235 132V177.833M448.235 132H497.647M448.235 177.833H497.647M448.235 177.833V223.667M497.647 132V177.833M497.647 132H547.059M497.647 177.833H547.059M497.647 177.833V223.667M547.059 132V177.833M547.059 132H596.471M547.059 177.833H596.471M547.059 177.833V223.667M596.471 132V177.833M596.471 132H645.882M596.471 177.833H645.882M596.471 177.833V223.667M645.882 132V177.833M645.882 132H695.294M645.882 177.833H695.294M645.882 177.833V223.667M695.294 132V177.833M695.294 132H744.706M695.294 177.833H744.706M695.294 177.833V223.667M744.706 132V177.833M744.706 132H794.118M744.706 177.833H794.118M744.706 177.833V223.667M794.118 132V177.833M794.118 132H843.529M794.118 177.833H843.529M794.118 177.833V223.667M843.529 132V177.833M843.529 132H892.941M843.529 177.833H892.941M843.529 177.833V223.667M892.941 132V177.833M892.941 132H942.353M892.941 177.833H942.353M892.941 177.833V223.667M942.353 132V177.833M942.353 132H991.765M942.353 177.833H991.765M942.353 177.833V223.667M991.765 132V177.833M991.765 132H1041.18M991.765 177.833H1041.18M991.765 177.833V223.667M1041.18 132V177.833M1041.18 132H1090.59M1041.18 177.833H1090.59M1041.18 177.833V223.667M1090.59 132V177.833M1090.59 132H1140V177.833M1090.59 177.833H1140M1090.59 177.833V223.667M1140 177.833V223.667M349.412 223.667H300M349.412 223.667H398.824M349.412 223.667V269.5M300 223.667V269.5M398.824 223.667H448.235M398.824 223.667V269.5M448.235 223.667H497.647M448.235 223.667V269.5M497.647 223.667H547.059M497.647 223.667V269.5M547.059 223.667H596.471M547.059 223.667V269.5M596.471 223.667H645.882M596.471 223.667V269.5M645.882 223.667H695.294M645.882 223.667V269.5M695.294 223.667H744.706M695.294 223.667V269.5M744.706 223.667H794.118M744.706 223.667V269.5M794.118 223.667H843.529M794.118 223.667V269.5M843.529 223.667H892.941M843.529 223.667V269.5M892.941 223.667H942.353M892.941 223.667V269.5M942.353 223.667H991.765M942.353 223.667V269.5M991.765 223.667H1041.18M991.765 223.667V269.5M1041.18 223.667H1090.59M1041.18 223.667V269.5M1090.59 223.667H1140M1090.59 223.667V269.5M1140 223.667V269.5M349.412 269.5H300M349.412 269.5H398.824M349.412 269.5V315.333M300 269.5V315.333M398.824 269.5H448.235M398.824 269.5V315.333M448.235 269.5H497.647M448.235 269.5V315.333M497.647 269.5H547.059M497.647 269.5V315.333M547.059 269.5H596.471M547.059 269.5V315.333M596.471 269.5H645.882M596.471 269.5V315.333M645.882 269.5H695.294M645.882 269.5V315.333M695.294 269.5H744.706M695.294 269.5V315.333M744.706 269.5H794.118M744.706 269.5V315.333M794.118 269.5H843.529M794.118 269.5V315.333M843.529 269.5H892.941M843.529 269.5V315.333M892.941 269.5H942.353M892.941 269.5V315.333M942.353 269.5H991.765M942.353 269.5V315.333M991.765 269.5H1041.18M991.765 269.5V315.333M1041.18 269.5H1090.59M1041.18 269.5V315.333M1090.59 269.5H1140M1090.59 269.5V315.333M1140 269.5V315.333M349.412 315.333H300M349.412 315.333H398.824M349.412 315.333V361.167M300 315.333V361.167M398.824 315.333H448.235M398.824 315.333V361.167M448.235 315.333H497.647M448.235 315.333V361.167M497.647 315.333H547.059M497.647 315.333V361.167M547.059 315.333H596.471M547.059 315.333V361.167M596.471 315.333H645.882M596.471 315.333V361.167M645.882 315.333H695.294M645.882 315.333V361.167M695.294 315.333H744.706M695.294 315.333V361.167M744.706 315.333H794.118M744.706 315.333V361.167M794.118 315.333H843.529M794.118 315.333V361.167M843.529 315.333H892.941M843.529 315.333V361.167M892.941 315.333H942.353M892.941 315.333V361.167M942.353 315.333H991.765M942.353 315.333V361.167M991.765 315.333H1041.18M991.765 315.333V361.167M1041.18 315.333H1090.59M1041.18 315.333V361.167M1090.59 315.333H1140M1090.59 315.333V361.167M1140 315.333V361.167M349.412 361.167H300M349.412 361.167H398.824M349.412 361.167V407M300 361.167V407M398.824 361.167H448.235M398.824 361.167V407M448.235 361.167H497.647M448.235 361.167V407M497.647 361.167H547.059M497.647 361.167V407M547.059 361.167H596.471M547.059 361.167V407M596.471 361.167H645.882M596.471 361.167V407M645.882 361.167H695.294M645.882 361.167V407M695.294 361.167H744.706M695.294 361.167V407M744.706 361.167H794.118M744.706 361.167V407M794.118 361.167H843.529M794.118 361.167V407M843.529 361.167H892.941M843.529 361.167V407M892.941 361.167H942.353M892.941 361.167V407M942.353 361.167H991.765M942.353 361.167V407M991.765 361.167H1041.18M991.765 361.167V407M1041.18 361.167H1090.59M1041.18 361.167V407M1090.59 361.167H1140M1090.59 361.167V407M1140 361.167V407M349.412 407H300M349.412 407H398.824M349.412 407V452.833M300 407V452.833M398.824 407H448.235M398.824 407V452.833M448.235 407H497.647M448.235 407V452.833M497.647 407H547.059M497.647 407V452.833M547.059 407H596.471M547.059 407V452.833M596.471 407H645.882M596.471 407V452.833M645.882 407H695.294M645.882 407V452.833M695.294 407H744.706M695.294 407V452.833M744.706 407H794.118M744.706 407V452.833M794.118 407H843.529M794.118 407V452.833M843.529 407H892.941M843.529 407V452.833M892.941 407H942.353M892.941 407V452.833M942.353 407H991.765M942.353 407V452.833M991.765 407H1041.18M991.765 407V452.833M1041.18 407H1090.59M1041.18 407V452.833M1090.59 407H1140M1090.59 407V452.833M1140 407V452.833M349.412 452.833H300M349.412 452.833H398.824M349.412 452.833V498.667M300 452.833V498.667M398.824 452.833H448.235M398.824 452.833V498.667M448.235 452.833H497.647M448.235 452.833V498.667M497.647 452.833H547.059M497.647 452.833V498.667M547.059 452.833H596.471M547.059 452.833V498.667M596.471 452.833H645.882M596.471 452.833V498.667M645.882 452.833H695.294M645.882 452.833V498.667M695.294 452.833H744.706M695.294 452.833V498.667M744.706 452.833H794.118M744.706 452.833V498.667M794.118 452.833H843.529M794.118 452.833V498.667M843.529 452.833H892.941M843.529 452.833V498.667M892.941 452.833H942.353M892.941 452.833V498.667M942.353 452.833H991.765M942.353 452.833V498.667M991.765 452.833H1041.18M991.765 452.833V498.667M1041.18 452.833H1090.59M1041.18 452.833V498.667M1090.59 452.833H1140M1090.59 452.833V498.667M1140 452.833V498.667M349.412 498.667H300M349.412 498.667H398.824M349.412 498.667V544.5M300 498.667V544.5M398.824 498.667H448.235M398.824 498.667V544.5M448.235 498.667H497.647M448.235 498.667V544.5M497.647 498.667H547.059M497.647 498.667V544.5M547.059 498.667H596.471M547.059 498.667V544.5M596.471 498.667H645.882M596.471 498.667V544.5M645.882 498.667H695.294M645.882 498.667V544.5M695.294 498.667H744.706M695.294 498.667V544.5M744.706 498.667H794.118M744.706 498.667V544.5M794.118 498.667H843.529M794.118 498.667V544.5M843.529 498.667H892.941M843.529 498.667V544.5M892.941 498.667H942.353M892.941 498.667V544.5M942.353 498.667H991.765M942.353 498.667V544.5M991.765 498.667H1041.18M991.765 498.667V544.5M1041.18 498.667H1090.59M1041.18 498.667V544.5M1090.59 498.667H1140M1090.59 498.667V544.5M1140 498.667V544.5M349.412 544.5H300M349.412 544.5H398.824M349.412 544.5V590.333M300 544.5V590.333M398.824 544.5H448.235M398.824 544.5V590.333M448.235 544.5H497.647M448.235 544.5V590.333M497.647 544.5H547.059M497.647 544.5V590.333M547.059 544.5H596.471M547.059 544.5V590.333M596.471 544.5H645.882M596.471 544.5V590.333M645.882 544.5H695.294M645.882 544.5V590.333M695.294 544.5H744.706M695.294 544.5V590.333M744.706 544.5H794.118M744.706 544.5V590.333M794.118 544.5H843.529M794.118 544.5V590.333M843.529 544.5H892.941M843.529 544.5V590.333M892.941 544.5H942.353M892.941 544.5V590.333M942.353 544.5H991.765M942.353 544.5V590.333M991.765 544.5H1041.18M991.765 544.5V590.333M1041.18 544.5H1090.59M1041.18 544.5V590.333M1090.59 544.5H1140M1090.59 544.5V590.333M1140 544.5V590.333M349.412 590.333H300M349.412 590.333H398.824M349.412 590.333V636.167M300 590.333V636.167M398.824 590.333H448.235M398.824 590.333V636.167M448.235 590.333H497.647M448.235 590.333V636.167M497.647 590.333H547.059M497.647 590.333V636.167M547.059 590.333H596.471M547.059 590.333V636.167M596.471 590.333H645.882M596.471 590.333V636.167M645.882 590.333H695.294M645.882 590.333V636.167M695.294 590.333H744.706M695.294 590.333V636.167M744.706 590.333H794.118M744.706 590.333V636.167M794.118 590.333H843.529M794.118 590.333V636.167M843.529 590.333H892.941M843.529 590.333V636.167M892.941 590.333H942.353M892.941 590.333V636.167M942.353 590.333H991.765M942.353 590.333V636.167M991.765 590.333H1041.18M991.765 590.333V636.167M1041.18 590.333H1090.59M1041.18 590.333V636.167M1090.59 590.333H1140M1090.59 590.333V636.167M1140 590.333V636.167M349.412 636.167H300M349.412 636.167H398.824M349.412 636.167V682M300 636.167V682H349.412M398.824 636.167H448.235M398.824 636.167V682M448.235 636.167H497.647M448.235 636.167V682M497.647 636.167H547.059M497.647 636.167V682M547.059 636.167H596.471M547.059 636.167V682M596.471 636.167H645.882M596.471 636.167V682M645.882 636.167H695.294M645.882 636.167V682M695.294 636.167H744.706M695.294 636.167V682M744.706 636.167H794.118M744.706 636.167V682M794.118 636.167H843.529M794.118 636.167V682M843.529 636.167H892.941M843.529 636.167V682M892.941 636.167H942.353M892.941 636.167V682M942.353 636.167H991.765M942.353 636.167V682M991.765 636.167H1041.18M991.765 636.167V682M1041.18 636.167H1090.59M1041.18 636.167V682M1090.59 636.167H1140M1090.59 636.167V682M1140 636.167V682H1090.59M349.412 682H398.824M398.824 682H448.235M448.235 682H497.647M497.647 682H547.059M547.059 682H596.471M596.471 682H645.882M645.882 682H695.294M695.294 682H744.706M744.706 682H794.118M794.118 682H843.529M843.529 682H892.941M892.941 682H942.353M942.353 682H991.765M991.765 682H1041.18M1041.18 682H1090.59" stroke="url(#paint9_radial_2001_3838)" stroke-opacity="0.6"/>
<defs>
<filter id="filter0_d_2001_3838" x="204" y="172.633" width="66" height="66" filterUnits="userSpaceOnUse" color-interpolation-filters="sRGB">
<feFlood flood-opacity="0" result="BackgroundImageFix"/>
<feColorMatrix in="SourceAlpha" type="matrix" values="0 0 0 0 0 0 0 0 0 0 0 0 0 0 0 0 0 0 127 0" result="hardAlpha"/>
<feOffset dx="-8" dy="8"/>
<feGaussianBlur stdDeviation="10"/>
<feComposite in2="hardAlpha" operator="out"/>
<feColorMatrix type="matrix" values="0 0 0 0 0 0 0 0 0 0 0 0 0 0 0 0 0 0 0.1 0"/>
<feBlend mode="normal" in2="BackgroundImageFix" result="effect1_dropShadow_2001_3838"/>
<feBlend mode="normal" in="SourceGraphic" in2="effect1_dropShadow_2001_3838" result="shape"/>
</filter>
<radialGradient id="paint0_radial_2001_3838" cx="0" cy="0" r="1" gradientUnits="userSpaceOnUse" gradientTransform="translate(14.0779 19.8156) rotate(90) scale(23.2096 7.78123)">
<stop stop-color="white"/>
<stop offset="1" stop-color="#C0DFFD"/>
</radialGradient>
<linearGradient id="paint1_linear_2001_3838" x1="19.4047" y1="-10.2655" x2="4.55269" y2="-0.192263" gradientUnits="userSpaceOnUse">
<stop stop-color="#C0DFFD"/>
<stop offset="1" stop-color="#C0DFFD" stop-opacity="0.5"/>
</linearGradient>
<radialGradient id="paint2_radial_2001_3838" cx="0" cy="0" r="1" gradientUnits="userSpaceOnUse" gradientTransform="translate(1317.18 392.137) rotate(65.7042) scale(9.08248 7.51996)">
<stop stop-color="#BDCBF3"/>
<stop offset="1" stop-color="#1E3A8A"/>
</radialGradient>
<radialGradient id="paint3_radial_2001_3838" cx="0" cy="0" r="1" gradientUnits="userSpaceOnUse" gradientTransform="translate(13.3103 9.42254) rotate(90) scale(11.0364 7.35694)">
<stop stop-color="white"/>
<stop offset="1" stop-color="#C0DFFD"/>
</radialGradient>
<linearGradient id="paint4_linear_2001_3838" x1="161.5" y1="173.633" x2="161.5" y2="496.633" gradientUnits="userSpaceOnUse">
<stop stop-color="#1E3A8A"/>
<stop offset="1" stop-color="#1E3A8A" stop-opacity="0"/>
</linearGradient>
<radialGradient id="paint5_radial_2001_3838" cx="0" cy="0" r="1" gradientUnits="userSpaceOnUse" gradientTransform="translate(13.3103 18.7352) rotate(90) scale(21.944 7.35694)">
<stop stop-color="white"/>
<stop offset="1" stop-color="#C0DFFD"/>
</radialGradient>
<linearGradient id="paint6_linear_2001_3838" x1="208.219" y1="300.724" x2="194.176" y2="310.248" gradientUnits="userSpaceOnUse">
<stop stop-color="#C0DFFD"/>
<stop offset="1" stop-color="#C0DFFD" stop-opacity="0.5"/>
</linearGradient>
<radialGradient id="paint7_radial_2001_3838" cx="0" cy="0" r="1" gradientUnits="userSpaceOnUse" gradientTransform="translate(242.259 191.838) rotate(65.7042) scale(15.0366 12.4497)">
<stop stop-color="white"/>
<stop offset="1" stop-color="#F97316"/>
</radialGradient>
<radialGradient id="paint8_radial_2001_3838" cx="0" cy="0" r="1" gradientUnits="userSpaceOnUse" gradientTransform="translate(112.259 251.838) rotate(65.7042) scale(15.0366 12.4497)">
<stop stop-color="white"/>
<stop offset="1" stop-color="#F97316"/>
</radialGradient>
<radialGradient id="paint9_radial_2001_3838" cx="0" cy="0" r="1" gradientUnits="userSpaceOnUse" gradientTransform="translate(720 421.69) rotate(90) scale(161.31 261.25)">
<stop stop-color="#1E3A8A"/>
<stop offset="1" stop-color="#1E3A8A" stop-opacity="0"/>
</radialGradient>
</defs>
</svg>
