<svg width="1439" height="802" viewBox="0 0 1439 802" fill="none" xmlns="http://www.w3.org/2000/svg">
<g clip-path="url(#clip0_204_3724)">
<path d="M136.671 44C136.671 19.6994 156.37 0 180.671 0H1258.37C1282.67 0 1302.37 19.6995 1302.37 44V787.382H136.671V44Z" fill="#1A202C"/>
<path d="M145.707 39.3758C145.707 21.7027 160.034 7.37579 177.707 7.37579H1261.75C1279.42 7.37579 1293.75 21.7027 1293.75 39.3758V756.034H145.707V39.3758Z" fill="black"/>
<rect width="1084.33" height="664.852" transform="translate(177.334 54.5657)" fill="#0F0F10"/>
<path d="M0 779.177H1439V786.785C1439 786.785 1373.46 802 1299.1 802C1224.73 802 214.27 801.239 139.903 801.239C65.5359 801.239 0 786.785 0 786.785V779.177Z" fill="url(#paint0_linear_204_3724)"/>
<path d="M0 780.332C0 779.227 0.895431 778.332 2 778.332H1437C1438.1 778.332 1439 779.227 1439 780.332V786.785H0V780.332Z" fill="url(#paint1_linear_204_3724)"/>
<path d="M612.598 778.332H827.332V778.332C827.332 783 823.548 786.785 818.88 786.785H621.05C616.382 786.785 612.598 783 612.598 778.332V778.332Z" fill="url(#paint2_linear_204_3724)"/>
</g>
<defs>
<linearGradient id="paint0_linear_204_3724" x1="719.5" y1="779.177" x2="719.5" y2="802" gradientUnits="userSpaceOnUse">
<stop stop-color="#80868A"/>
<stop offset="1" stop-color="#2A2C2F"/>
</linearGradient>
<linearGradient id="paint1_linear_204_3724" x1="3.02266e-06" y1="782.558" x2="1439" y2="782.558" gradientUnits="userSpaceOnUse">
<stop stop-color="#2A2C2F"/>
<stop offset="0.208333" stop-color="#80868A"/>
<stop offset="0.770833" stop-color="#80868A"/>
<stop offset="1" stop-color="#2A2C2F"/>
</linearGradient>
<linearGradient id="paint2_linear_204_3724" x1="612.598" y1="782.558" x2="827.332" y2="782.558" gradientUnits="userSpaceOnUse">
<stop stop-color="#2A2C2F"/>
<stop offset="0.229167" stop-color="#80868A"/>
<stop offset="0.802083" stop-color="#80868A"/>
<stop offset="1" stop-color="#2A2C2F"/>
</linearGradient>
<clipPath id="clip0_204_3724">
<rect width="1439" height="802" fill="white"/>
</clipPath>
</defs>
</svg>
