<svg width="22" height="20" viewBox="0 0 22 20" fill="none" xmlns="http://www.w3.org/2000/svg">
<path d="M11.0009 7V1M11.0009 7H3.57786C3.27291 7.00004 2.97201 7.06981 2.69816 7.20399C2.42431 7.33816 2.18477 7.53318 1.99785 7.77414C1.81094 8.01509 1.6816 8.29559 1.61973 8.5942C1.55785 8.89281 1.56508 9.20161 1.64086 9.497L3.69186 17.497C3.80225 17.9273 4.05275 18.3086 4.40384 18.5807C4.75494 18.8529 5.18664 19.0004 5.63086 19H16.3709C16.8147 18.9999 17.246 18.8522 17.5967 18.5801C17.9474 18.308 18.1976 17.927 18.3079 17.497L20.3599 9.497C20.4356 9.20161 20.4429 8.89281 20.381 8.5942C20.3191 8.29559 20.1898 8.01509 20.0029 7.77414C19.816 7.53318 19.5764 7.33816 19.3026 7.20399C19.0287 7.06981 18.7278 7.00004 18.4229 7H11.0009Z" stroke="black" stroke-width="2" stroke-linecap="round" stroke-linejoin="round"/>
</svg>
