<svg width="50" height="50" viewBox="0 0 50 50" fill="none" xmlns="http://www.w3.org/2000/svg">
<rect width="50" height="50" rx="25" fill="white"/>
<path d="M18.6015 29.9848C18.211 30.3753 18.211 31.0085 18.6015 31.399C18.992 31.7895 19.6252 31.7895 20.0157 31.399L18.6015 29.9848ZM31.6926 19.3079C31.6926 18.7556 31.2449 18.3079 30.6926 18.3079L21.6926 18.3079C21.1403 18.3079 20.6926 18.7556 20.6926 19.3079C20.6926 19.8602 21.1403 20.3079 21.6926 20.3079L29.6926 20.3079L29.6926 28.3079C29.6926 28.8602 30.1403 29.3079 30.6926 29.3079C31.2449 29.3079 31.6926 28.8602 31.6926 28.3079L31.6926 19.3079ZM20.0157 31.399L31.3997 20.015L29.9855 18.6008L18.6015 29.9848L20.0157 31.399Z" fill="#F97316"/>
</svg>
