<svg width="22" height="22" viewBox="0 0 22 22" fill="none" xmlns="http://www.w3.org/2000/svg">
<path d="M7.33333 20.1667H14.6667C18.3517 20.1667 19.0117 18.6908 19.2042 16.8942L19.8917 9.56083C20.1392 7.32417 19.4975 5.5 15.5833 5.5H6.41667C2.5025 5.5 1.86083 7.32417 2.10833 9.56083L2.79583 16.8942C2.98833 18.6908 3.64833 20.1667 7.33333 20.1667Z" stroke="#828282" stroke-width="2" stroke-miterlimit="10" stroke-linecap="round" stroke-linejoin="round"/>
<path d="M7.33333 5.49998V4.76665C7.33333 3.14415 7.33333 1.83331 10.2667 1.83331H11.7333C14.6667 1.83331 14.6667 3.14415 14.6667 4.76665V5.49998" stroke="#828282" stroke-width="2" stroke-miterlimit="10" stroke-linecap="round" stroke-linejoin="round"/>
<path d="M12.8333 11.9167V12.8333C12.8333 12.8425 12.8333 12.8425 12.8333 12.8517C12.8333 13.8508 12.8242 14.6667 11 14.6667C9.185 14.6667 9.16667 13.86 9.16667 12.8608V11.9167C9.16667 11 9.16667 11 10.0833 11H11.9167C12.8333 11 12.8333 11 12.8333 11.9167Z" stroke="#828282" stroke-width="2" stroke-miterlimit="10" stroke-linecap="round" stroke-linejoin="round"/>
<path d="M19.8458 10.0833C17.7283 11.6233 15.3083 12.54 12.8333 12.8516" stroke="#828282" stroke-width="1.5" stroke-miterlimit="10" stroke-linecap="round" stroke-linejoin="round"/>
<path d="M2.40167 10.3308C4.46417 11.7425 6.7925 12.595 9.16667 12.8608" stroke="#828282" stroke-width="1.5" stroke-miterlimit="10" stroke-linecap="round" stroke-linejoin="round"/>
</svg>
