<svg width="22" height="22" viewBox="0 0 22 22" fill="none" xmlns="http://www.w3.org/2000/svg">
<path d="M9.23188 2.92014L9.23226 2.91983C10.2107 2.13402 11.7842 2.13828 12.778 2.92988C12.7781 2.92999 12.7783 2.93009 12.7784 2.93019L18.7782 7.73004C18.7788 7.73048 18.7793 7.73093 18.7799 7.73137C19.1188 8.00829 19.4145 8.44375 19.6056 8.94409C19.7967 9.44403 19.8671 9.9661 19.8013 10.3985L18.6474 17.3036C18.6473 17.3041 18.6472 17.3046 18.6471 17.3051C18.4216 18.5988 17.1607 19.6667 15.8583 19.6667H6.14167C4.81969 19.6667 3.58753 18.6251 3.36214 17.3148C3.36208 17.3144 3.36202 17.3141 3.36196 17.3138L2.20733 10.4043L2.20714 10.4031C2.13332 9.96761 2.19934 9.4446 2.38989 8.94492C2.58042 8.44529 2.87969 8.01032 3.22684 7.73334L3.22771 7.73264L9.23188 2.92014ZM11 17.6875C11.652 17.6875 12.1875 17.152 12.1875 16.5V13.75C12.1875 13.098 11.652 12.5625 11 12.5625C10.348 12.5625 9.8125 13.098 9.8125 13.75V16.5C9.8125 17.152 10.348 17.6875 11 17.6875Z" fill="#1E3A8A" stroke="#1E3A8A"/>
</svg>
