<svg width="25" height="24" viewBox="0 0 25 24" fill="none" xmlns="http://www.w3.org/2000/svg">
<path d="M16.334 2H8.33398C4.83398 2 3.33398 4 3.33398 7V17C3.33398 20 4.83398 22 8.33398 22H16.334C19.834 22 21.334 20 21.334 17V7C21.334 4 19.834 2 16.334 2ZM8.33398 12.25H12.334C12.744 12.25 13.084 12.59 13.084 13C13.084 13.41 12.744 13.75 12.334 13.75H8.33398C7.92398 13.75 7.58398 13.41 7.58398 13C7.58398 12.59 7.92398 12.25 8.33398 12.25ZM16.334 17.75H8.33398C7.92398 17.75 7.58398 17.41 7.58398 17C7.58398 16.59 7.92398 16.25 8.33398 16.25H16.334C16.744 16.25 17.084 16.59 17.084 17C17.084 17.41 16.744 17.75 16.334 17.75ZM18.834 9.25H16.834C15.314 9.25 14.084 8.02 14.084 6.5V4.5C14.084 4.09 14.424 3.75 14.834 3.75C15.244 3.75 15.584 4.09 15.584 4.5V6.5C15.584 7.19 16.144 7.75 16.834 7.75H18.834C19.244 7.75 19.584 8.09 19.584 8.5C19.584 8.91 19.244 9.25 18.834 9.25Z" fill="white"/>
</svg>
