<svg width="22" height="22" viewBox="0 0 22 22" fill="none" xmlns="http://www.w3.org/2000/svg">
<path d="M7.79167 17.4167H7.33333C3.66667 17.4167 1.83333 16.5 1.83333 11.9167V7.33334C1.83333 3.66668 3.66667 1.83334 7.33333 1.83334H14.6667C18.3333 1.83334 20.1667 3.66668 20.1667 7.33334V11.9167C20.1667 15.5833 18.3333 17.4167 14.6667 17.4167H14.2083C13.9242 17.4167 13.6492 17.5542 13.475 17.7833L12.1 19.6167C11.495 20.4233 10.505 20.4233 9.9 19.6167L8.525 17.7833C8.37833 17.5817 8.03917 17.4167 7.79167 17.4167Z" stroke="#828282" stroke-width="2" stroke-miterlimit="10" stroke-linecap="round" stroke-linejoin="round"/>
<path d="M14.6634 10.0833H14.6717" stroke="#828282" stroke-width="2" stroke-linecap="round" stroke-linejoin="round"/>
<path d="M10.9959 10.0833H11.0041" stroke="#828282" stroke-width="2" stroke-linecap="round" stroke-linejoin="round"/>
<path d="M7.3283 10.0833H7.33653" stroke="#828282" stroke-width="2" stroke-linecap="round" stroke-linejoin="round"/>
</svg>
