<svg width="22" height="22" viewBox="0 0 22 22" fill="none" xmlns="http://www.w3.org/2000/svg">
<path d="M2.90585 6.82001L11 11.5042L19.0392 6.84748" stroke="#828282" stroke-width="2" stroke-linecap="round" stroke-linejoin="round"/>
<path d="M11 19.8092V11.495" stroke="#828282" stroke-width="2" stroke-linecap="round" stroke-linejoin="round"/>
<path d="M9.10249 2.27334L4.2075 4.99587C3.09833 5.61004 2.19085 7.15002 2.19085 8.41502V13.5942C2.19085 14.8592 3.09833 16.3992 4.2075 17.0134L9.10249 19.7359C10.1475 20.3134 11.8617 20.3134 12.9067 19.7359L17.8017 17.0134C18.9108 16.3992 19.8183 14.8592 19.8183 13.5942V8.41502C19.8183 7.15002 18.9108 5.61004 17.8017 4.99587L12.9067 2.27334C11.8525 1.68668 10.1475 1.68668 9.10249 2.27334Z" stroke="#828282" stroke-width="2" stroke-linecap="round" stroke-linejoin="round"/>
<path d="M15.5833 12.1366V8.78167L6.88417 3.7583" stroke="#828282" stroke-width="1.5" stroke-linecap="round" stroke-linejoin="round"/>
</svg>
