<svg width="22" height="22" viewBox="0 0 22 22" fill="none" xmlns="http://www.w3.org/2000/svg">
<path d="M2.75 8.35081V13.64C2.75 15.5833 2.75 15.5833 4.58333 16.8208L9.625 19.7358C10.3858 20.1758 11.6233 20.1758 12.375 19.7358L17.4167 16.8208C19.25 15.5833 19.25 15.5833 19.25 13.6491V8.35081C19.25 6.41664 19.25 6.41664 17.4167 5.17914L12.375 2.26414C11.6233 1.82414 10.3858 1.82414 9.625 2.26414L4.58333 5.17914C2.75 6.41664 2.75 6.41664 2.75 8.35081Z" stroke="#828282" stroke-width="2" stroke-linecap="round" stroke-linejoin="round"/>
<path d="M11 13.75C12.5188 13.75 13.75 12.5188 13.75 11C13.75 9.48122 12.5188 8.25 11 8.25C9.48122 8.25 8.25 9.48122 8.25 11C8.25 12.5188 9.48122 13.75 11 13.75Z" stroke="#828282" stroke-width="2" stroke-linecap="round" stroke-linejoin="round"/>
</svg>
