<svg width="22" height="22" viewBox="0 0 22 22" fill="none" xmlns="http://www.w3.org/2000/svg">
<path d="M9.23242 2.92041C10.2105 2.13484 11.7835 2.13832 12.7773 2.9292V2.93018L18.7783 7.729V7.72998C19.1178 8.00674 19.414 8.4429 19.6055 8.94385C19.796 9.4424 19.8666 9.96337 19.8018 10.395L18.6475 17.3042C18.4225 18.5984 17.1612 19.6665 15.8584 19.6665H6.1416C4.90194 19.6664 3.74151 18.7507 3.41602 17.5562L3.3623 17.314L2.20703 10.4048V10.4028L2.18652 10.2358C2.15236 9.83721 2.22295 9.38197 2.38965 8.94482C2.55644 8.50748 2.807 8.11988 3.09961 7.84424L3.22656 7.73389L3.22754 7.73291L9.23242 2.92041ZM11 12.563C10.3481 12.5631 9.8125 13.0986 9.8125 13.7505V16.5005C9.81267 17.1523 10.3482 17.6879 11 17.688C11.6519 17.688 12.1873 17.1523 12.1875 16.5005V13.7505C12.1875 13.0985 11.652 12.563 11 12.563Z" fill="#1E3A8A" stroke="#1E3A8A"/>
</svg>
