<svg width="22" height="22" viewBox="0 0 22 22" fill="none" xmlns="http://www.w3.org/2000/svg">
<path d="M7.79232 17.4168H7.33398C3.66732 17.4168 1.83398 16.5002 1.83398 11.9168V7.3335C1.83398 3.66683 3.66732 1.8335 7.33398 1.8335H14.6673C18.334 1.8335 20.1673 3.66683 20.1673 7.3335V11.9168C20.1673 15.5835 18.334 17.4168 14.6673 17.4168H14.209C13.9248 17.4168 13.6498 17.5543 13.4757 17.7835L12.1007 19.6168C11.4957 20.4235 10.5057 20.4235 9.90065 19.6168L8.52565 17.7835C8.37898 17.5818 8.03982 17.4168 7.79232 17.4168Z" stroke="#828282" stroke-width="2" stroke-miterlimit="10" stroke-linecap="round" stroke-linejoin="round"/>
<path d="M14.6642 10.0833H14.6725" stroke="#828282" stroke-width="2" stroke-linecap="round" stroke-linejoin="round"/>
<path d="M10.9963 10.0833H11.0045" stroke="#828282" stroke-width="2" stroke-linecap="round" stroke-linejoin="round"/>
<path d="M7.3283 10.0833H7.33653" stroke="#828282" stroke-width="2" stroke-linecap="round" stroke-linejoin="round"/>
</svg>
