<svg width="22" height="22" viewBox="0 0 22 22" fill="none" xmlns="http://www.w3.org/2000/svg">
<path d="M2.90625 6.82031L11.0004 11.5045L19.0396 6.84778" stroke="#828282" stroke-width="2" stroke-linecap="round" stroke-linejoin="round"/>
<path d="M11 19.8093V11.4951" stroke="#828282" stroke-width="2" stroke-linecap="round" stroke-linejoin="round"/>
<path d="M9.10305 2.2735L4.20806 4.99603C3.09889 5.61019 2.19141 7.15017 2.19141 8.41517V13.5944C2.19141 14.8594 3.09889 16.3993 4.20806 17.0135L9.10305 19.736C10.1481 20.3135 11.8622 20.3135 12.9072 19.736L17.8022 17.0135C18.9114 16.3993 19.8189 14.8594 19.8189 13.5944V8.41517C19.8189 7.15017 18.9114 5.61019 17.8022 4.99603L12.9072 2.2735C11.853 1.68683 10.1481 1.68683 9.10305 2.2735Z" stroke="#828282" stroke-width="2" stroke-linecap="round" stroke-linejoin="round"/>
<path d="M15.5839 12.1366V8.78167L6.88477 3.7583" stroke="#828282" stroke-width="1.5" stroke-linecap="round" stroke-linejoin="round"/>
</svg>
