<svg width="25" height="24" viewBox="0 0 25 24" fill="none" xmlns="http://www.w3.org/2000/svg">
<path d="M15.886 6.55005H6.44602C6.16602 6.55005 5.90602 6.56005 5.66602 6.57005C3.29602 6.71005 2.66602 7.58005 2.66602 10.28V10.86C2.66602 11.41 3.11602 11.86 3.66602 11.86H18.666C19.216 11.86 19.666 11.41 19.666 10.86V10.28C19.666 7.30005 18.906 6.55005 15.886 6.55005Z" fill="white"/>
<path d="M3.66602 13.36C3.11602 13.36 2.66602 13.81 2.66602 14.36V17.27C2.66602 20.25 3.42602 21 6.44602 21H15.886C18.856 21 19.636 20.28 19.666 17.43V14.36C19.666 13.81 19.216 13.36 18.666 13.36H3.66602ZM7.62602 18.56H5.91602C5.50602 18.56 5.16602 18.22 5.16602 17.81C5.16602 17.4 5.50602 17.06 5.91602 17.06H7.63602C8.04602 17.06 8.38602 17.4 8.38602 17.81C8.38602 18.22 8.04602 18.56 7.62602 18.56ZM13.216 18.56H9.77602C9.36602 18.56 9.02602 18.22 9.02602 17.81C9.02602 17.4 9.36602 17.06 9.77602 17.06H13.216C13.626 17.06 13.966 17.4 13.966 17.81C13.966 18.22 13.636 18.56 13.216 18.56Z" fill="white"/>
<path d="M22.6656 13.33V8.08998C22.6656 4.95998 20.8756 3.59998 18.1756 3.59998H9.24564C8.48564 3.59998 7.80564 3.70998 7.20564 3.93998C6.73564 4.10998 6.31564 4.35998 5.97564 4.68998C5.79564 4.85998 5.93564 5.13998 6.19564 5.13998H17.0656C19.3156 5.13998 21.1356 6.95998 21.1356 9.20998V16.38C21.1356 16.63 21.4056 16.77 21.5856 16.59C22.2756 15.86 22.6656 14.79 22.6656 13.33Z" fill="white"/>
</svg>
